<svg width="168" height="88" viewBox="0 0 168 88" fill="none" xmlns="http://www.w3.org/2000/svg">
<g clip-path="url(#clip0_430_5126)">
<path d="M78.3594 28.0312V38.2812H76.2656V34.0312H71.7031V38.2812H69.6094V28.0312H71.7031V32.0469H76.2656V28.0312H78.3594ZM90.5938 28.0312V38.2812H88.5V30.9375L85.6406 35.2656H85.4531L82.5937 30.9375V38.2812H80.5V28.0312H82.9062L85.5469 31.9687L88.1562 28.0312H90.5938ZM101.5 28.0312V38.2812H99.4062V34L99.5937 31.1094L95.125 38.2969H92.7187V28.0469H94.8125V32.3437L94.625 35.2344L99.0937 28.0469H101.5V28.0312ZM113.484 36.2969V40.3281H111.391V38.2969H103.641V28.0469H105.734V36.3125H109.828V28.0469H111.922V36.3125L113.484 36.2969ZM79.8594 48.8594C79.8594 51.875 77.5312 54.1719 74.5156 54.1719C71.5 54.1719 69.1875 51.8906 69.1875 48.8594C69.1875 45.8438 71.5 43.5469 74.5156 43.5469C77.5312 43.5625 79.8594 45.8438 79.8594 48.8594ZM71.2812 48.8594C71.2812 50.7813 72.6562 52.1719 74.5 52.1719C76.3438 52.1719 77.7187 50.7813 77.7187 48.8594C77.7187 46.9375 76.3438 45.5469 74.5 45.5469C72.6562 45.5625 71.2812 46.9531 71.2812 48.8594ZM90.375 43.7344V54H88.2813V49.75H83.7188V54H81.625V43.75H83.7188V47.7656H88.2813V43.75L90.375 43.7344ZM98.5469 54L94.7031 49.2187V54H92.5937V43.75H94.6875V48.2969L98.3281 43.75H100.922L96.8906 48.7188L101.156 54.0156L98.5469 54ZM111.953 48.8594C111.953 51.875 109.625 54.1719 106.609 54.1719C103.594 54.1719 101.281 51.8906 101.281 48.8594C101.281 45.8438 103.594 43.5469 106.609 43.5469C109.625 43.5625 111.953 45.8438 111.953 48.8594ZM103.391 48.8594C103.391 50.7813 104.766 52.1719 106.609 52.1719C108.453 52.1719 109.828 50.7813 109.828 48.8594C109.828 46.9375 108.453 45.5469 106.609 45.5469C104.766 45.5625 103.391 46.9531 103.391 48.8594ZM122.219 43.7344V54H120.125V45.7344H117.359L116.531 50.8437C116.141 53.2344 115.141 54.1719 113.672 54.1719C113.344 54.1719 112.953 54.125 112.641 54.0625V52.1719C112.828 52.2031 113.047 52.2188 113.234 52.2188C113.953 52.2188 114.266 51.875 114.469 50.6406L115.578 43.7344H122.219ZM134.672 48.8594C134.672 51.875 132.344 54.1719 129.328 54.1719C126.312 54.1719 124 51.8906 124 48.8594C124 45.8438 126.312 43.5469 129.328 43.5469C132.344 43.5625 134.672 45.8438 134.672 48.8594ZM126.109 48.8594C126.109 50.7813 127.484 52.1719 129.328 52.1719C131.172 52.1719 132.547 50.7813 132.547 48.8594C132.547 46.9375 131.172 45.5469 129.328 45.5469C127.484 45.5625 126.109 46.9531 126.109 48.8594ZM142.938 45.7344H138.547V54H136.453V43.75H142.938V45.7344ZM153.156 43.7344V54H151.062V49.7031L151.25 46.8125L146.781 54H144.375V43.75H146.469V48.0469L146.281 50.9375L150.75 43.75L153.156 43.7344ZM164 43.7344V54H161.906V49.7031L162.094 46.8125L157.625 54H155.219V43.75H157.312V48.0469L157.125 50.9375L161.594 43.75L164 43.7344ZM74.6094 68.8594V64.0781L71.4375 68.8594H70.5469V62.6875H71.4375V67.4531L74.6094 62.6875H75.5156V68.8594H74.6094ZM82.8281 68.8594V64.4687L81.1094 67.8906H80.4219L78.6719 64.4687V68.8594H77.7812V62.6875H78.6719L80.7656 66.8438L82.8437 62.6875H83.7344V68.8594H82.8281ZM85.9687 68.8594V67.6719H87.1562V68.8594H85.9687ZM95.25 68.8594V64.7812H91.0156V68.8594H90.0625V59.9219H91.0156V63.9375H95.25V59.9219H96.2031V68.8594H95.25ZM99.1094 68.8594V67.6719H100.297V68.8594H99.1094ZM108.187 68.8594V64.7812H103.953V68.8594H103V59.9219H103.953V63.9375H108.187V59.9219H109.141V68.8594H108.187ZM111.844 68.8594V67.6719H113.031V68.8594H111.844ZM119.125 68.8594H115.75V59.9219H121.328V60.7812H116.719V63.6094H119.141C120.813 63.6094 121.891 64.6562 121.891 66.25C121.875 67.7969 120.797 68.8594 119.125 68.8594ZM119.031 64.4531H116.703V68.0156H119.031C120.234 68.0156 120.922 67.3594 120.922 66.25C120.922 65.1094 120.219 64.4531 119.031 64.4531ZM127.75 68.8594V63.4688H125.578V65.6094C125.578 68.1875 124.75 68.875 123.625 68.875H123.203V68.0938H123.406C123.953 68.0938 124.719 67.9063 124.719 65.3438V62.6875H128.672V68.8594H127.75ZM135.203 68.2344C134.781 68.6719 134.188 68.9375 133.438 68.9375C132.688 68.9375 132.094 68.6719 131.672 68.2344C131.047 67.5937 130.922 66.7344 130.922 65.7656C130.922 64.7969 131.047 63.9375 131.672 63.2969C132.094 62.8594 132.688 62.5937 133.438 62.5937C134.188 62.5937 134.781 62.8594 135.203 63.2969C135.828 63.9219 135.953 64.7969 135.953 65.7656C135.953 66.7344 135.828 67.5937 135.203 68.2344ZM134.562 63.8594C134.266 63.5469 133.875 63.4063 133.438 63.4063C133 63.4063 132.625 63.5469 132.328 63.8594C131.875 64.3125 131.828 65.0625 131.828 65.7656C131.828 66.4531 131.859 67.2187 132.328 67.6719C132.625 67.9844 133 68.125 133.438 68.125C133.875 68.125 134.266 67.9844 134.562 67.6719C135.016 67.2031 135.047 66.4531 135.047 65.7656C135.047 65.0625 135.016 64.3125 134.562 63.8594ZM141.312 68.8594L139.828 66.4687L138.328 68.8594H137.234L139.328 65.7031L137.312 62.6719H138.406L139.828 64.9531L141.219 62.6719H142.312L140.328 65.7187L142.422 68.875H141.312V68.8594ZM148.344 68.8594V64.0781L145.172 68.8594H144.281V62.6875H145.172V67.4531L148.344 62.6875H149.25V68.8594H148.344ZM155.703 68.8594V66.0625H152.719V68.8594H151.812V62.6875H152.703V65.2813H155.687V62.6875H156.594V68.8594H155.703ZM162.672 68.8594V68.2656C162.187 68.75 161.719 68.9375 160.891 68.9375C160.031 68.9375 159.578 68.7969 159.141 68.375C158.828 68.0625 158.672 67.6094 158.672 67.125C158.672 66.0312 159.437 65.3438 160.812 65.3438H162.656V64.75C162.656 63.8594 162.219 63.3906 161.078 63.3906C160.297 63.3906 159.891 63.5938 159.516 64.1094L158.891 63.5469C159.437 62.8281 160.047 62.625 161.078 62.625C162.75 62.625 163.547 63.3594 163.547 64.6875V68.875H162.672V68.8594ZM162.672 66H160.953C160.031 66 159.562 66.3594 159.562 67.0937C159.562 67.8125 160 68.1406 161 68.1406C161.516 68.1406 161.969 68.0937 162.359 67.7187C162.578 67.5156 162.672 67.1719 162.672 66.6406V66Z" fill="#314866"/>
<path d="M59.4844 22.2973C59.4844 23.0317 59.4531 28.563 59.4531 29.438C58.6875 31.9067 57.1563 34.0942 55.0469 35.9692C52.9375 37.8442 50.2813 39.3755 47.2812 40.4848C44.2656 41.6098 40.9219 42.313 37.4375 42.5317C33.9531 42.7505 30.3438 42.4848 26.8281 41.6567V41.6411L22.5938 38.5005V36.813L55.0469 19.0161L55.9531 19.7192C55.9531 19.7192 56.4219 40.2973 26.8281 39.9223C31.6719 40.4848 36.0625 40.2348 39.9531 39.3911C43.8281 38.5473 47.1875 37.1255 50 35.3442C52.7969 33.563 55.0156 31.4223 56.625 29.1723C58.2187 26.9223 59.1875 24.563 59.4844 22.2973ZM56.375 45.7661L56.2344 45.9536C54.5937 48.188 52.3594 50.2817 49.625 52.0786C46.8438 53.9067 43.5156 55.438 39.7031 56.4848C35.9063 57.5161 31.9375 58.1098 27.2188 58.0317H26.8281L22.5938 54.938V56.4692L26.8281 59.6411C28.2344 59.9692 30.8594 60.3442 34.0312 60.3286C35.0469 60.3286 36.0781 60.2973 37.1406 60.2036C40.3281 59.9536 43.5937 59.2817 46.6562 58.1098C47.5 57.7973 48.3437 57.438 49.1406 57.0317C51.0781 56.0786 52.7656 54.9536 54.1875 53.7036C54.5469 53.3911 54.8906 53.063 55.2187 52.7192C53.6875 54.5005 51.7969 56.1723 49.5469 57.6723C46.7656 59.5161 43.4531 61.0786 39.6719 62.188C35.9063 63.2973 27.0781 64.0942 26.875 64.0942V64.0786L22.5938 61.0005V62.4692L26.8281 65.6255V65.6411C27.875 65.8911 30.5625 66.2661 33.9531 66.2348C34.9531 66.2192 35.9688 66.1723 37.0156 66.0942C40.125 65.8286 43.3594 65.1567 46.4219 63.9848C47.25 63.6567 48.0625 63.313 48.875 62.9067C50.7969 61.9692 52.4531 60.8442 53.8438 59.6255C52.5625 60.9223 51.0781 62.1411 49.4063 63.2661C46.625 65.1255 43.3438 66.7036 39.5625 67.8911C35.8125 69.063 26.9219 70.1098 26.8437 70.1098V71.6411C27.5469 71.813 30.2656 72.2348 33.8906 72.1567C34.8594 72.1411 35.875 72.0942 36.9219 71.9848C39.9219 71.7036 43.125 71.0473 46.2188 69.8598C47.0469 69.5473 47.8594 69.188 48.6406 68.7973C49.875 68.188 51 67.5005 52.0156 66.7661C51.1719 67.4848 50.2656 68.1723 49.2812 68.8442C46.5 70.7348 43.2344 72.3442 39.4844 73.5942C35.7813 74.8286 27.2969 76.1411 26.8437 76.1411V77.6255C27.1875 77.7036 29.9844 78.1567 33.8281 78.0473C34.7812 78.0161 35.7813 77.9536 36.8281 77.8598C39.7344 77.563 42.9062 76.938 46.0156 75.7192C46.8125 75.4067 47.625 75.063 48.4063 74.6723C49.0313 74.3598 49.625 74.0317 50.1719 73.688C49.8281 73.938 49.4844 74.188 49.1406 74.4223C46.375 76.313 43.1094 77.9692 39.3906 79.2817C35.6719 80.6098 31.4688 81.6098 26.8281 82.1723L22.5938 79.0942V80.4536L26.8281 83.6255V83.6411C26.8281 83.6411 29.6562 84.1098 33.75 83.9692C37.8437 83.8286 43.1719 83.0473 48.1719 80.563C53.1563 78.063 55.9844 74.5317 57.5625 71.6098C59.1406 68.688 59.4688 66.3911 59.4688 66.3911V43.2192C59.4844 42.313 59.4844 37.7036 59.4844 37.1723C59.0313 39.4848 58 43.5473 56.375 45.7661ZM26.8281 77.6411L22.5938 74.4692V73.0473L26.8281 76.1567V77.6411ZM26.8281 71.6255L22.5938 68.4692V67.0317L26.8281 70.1255V71.6255ZM42.8125 22.7661L34.1719 16.2817L20.7188 23.6255V33.5786C20.7188 34.1411 21.5313 34.2036 21.625 33.6567C22.1719 30.6098 22.875 28.7973 23.8438 28.8911C25.1406 29.0161 26.8281 31.7817 29.0156 30.2192L42.8125 22.7661ZM19.4844 18.8598C16.7031 20.438 8.25 25.063 8.25 25.063V25.0473C19.7969 4.00046 37.4687 4.57859 37.4687 4.57859L36.7344 4.03171C36.7344 4.03171 12.9375 2.79734 4.01563 21.9536L4.0625 22.0005L4 21.9536V23.438L8.23438 26.6098C8.23438 26.6098 15.9687 23.313 18.9531 24.7192C15.9219 27.1098 8.23438 31.1723 8.23438 31.1723V31.188L4 28.0786V29.5473L8.23438 32.7036V32.7192C8.23438 32.7036 16.3438 29.0786 19.0469 30.2192C16.2031 33.2192 8.23438 37.2817 8.23438 37.2817L4 34.2036V35.6567L8.23438 38.8286C8.23438 38.8286 16.6875 34.8598 19.1094 35.7348C16.4687 39.3442 8.23438 43.4223 8.23438 43.4223V43.4067L4 40.313V41.7505L8.23438 44.9223C8.23438 44.9223 17.0156 40.6411 19.1719 41.2348C16.7344 45.4692 8.23438 49.5317 8.23438 49.5317L4 46.4223V47.8442L8.23438 51.0005V51.0161C8.23438 51.0161 17.3125 46.4223 19.2188 46.7036C16.9688 51.5786 8.23438 55.6411 8.23438 55.6411V55.6567L4 52.5473V53.9536L8.23438 57.1098V57.1255C8.23438 57.1098 17.5469 52.2505 19.25 52.2036C17.1875 57.7192 8.23438 61.7505 8.23438 61.7505V61.7661L4 58.6567V60.063L8.23438 63.2348C8.23438 63.2348 17.7656 58.1098 19.2813 57.7036C17.4063 63.8755 8.23438 67.8755 8.23438 67.8755V67.9067L4 64.7973V66.1567L8.23438 69.3286V69.313L19.4688 63.1098V22.688L34.25 14.5005L40.8906 19.6098V7.25046L19.4844 18.8598Z" fill="#9C9C9C"/>
<path d="M59.4688 31.9375V31.625C59.4688 30.2656 59.4531 28.0156 59.4531 27.6094C59.1094 29.875 58.125 32.4687 56.5156 34.7344C56.4688 34.7969 56.4375 34.8437 56.3906 34.9062C54.7812 37.1094 52.5781 39.1875 49.8437 40.9531C47.0625 42.75 43.7031 44.2031 39.8437 45.125C36.0312 46.0156 27.2344 46.0469 26.8125 45.9844V45.9688L22.5938 42.8438V44.5L26.8281 47.6562V47.6719C28.9219 48.1562 31.4687 48.4844 34.1562 48.5156C35.2188 48.5312 36.2812 48.5 37.3437 48.4219C40.7344 48.1875 44.0625 47.4844 47.0781 46.3594C47.9531 46.0313 48.7969 45.6719 49.6094 45.2813C51.5781 44.3281 53.3125 43.1875 54.7656 41.8906C55.5 41.2344 56.1719 40.5469 56.75 39.8281C56.6563 39.9844 56.5625 40.125 56.4531 40.2656C56.4219 40.3281 56.375 40.3906 56.3281 40.4531C54.6875 42.6719 52.5 44.75 49.75 46.5469C46.9687 48.3594 43.625 49.8438 39.7969 50.8281C35.9688 51.7969 26.9844 52.0469 26.8281 52.0312V52.0156L22.5938 48.9062V50.4687L26.8281 53.6406V53.6562C28.5781 54.0781 31.1719 54.4219 34.0938 54.4375C35.125 54.4531 36.1719 54.4219 37.2344 54.3281C40.5312 54.0781 43.8281 53.4062 46.8594 52.25C47.7187 51.9219 48.5469 51.5625 49.3594 51.1719C51.3125 50.2187 53.0312 49.0781 54.4531 47.8125C56.5625 45.9375 58.0781 43.7812 58.9062 41.5C59.3594 40.3437 59.4531 38.5469 59.4531 37.4219C59.4687 36.2969 59.4688 32.3281 59.4688 31.8594C59.4844 31.875 59.4844 31.9062 59.4688 31.9375Z" fill="#2081C4"/>
</g>
<defs>
<clipPath id="clip0_430_5126">
<rect width="160" height="80" fill="white" transform="translate(4 4)"/>
</clipPath>
</defs>
</svg>
