<svg width="56" height="80" viewBox="0 0 56 80" fill="none" xmlns="http://www.w3.org/2000/svg">
<path d="M55.4844 18.2817C55.4844 19.0161 55.4531 24.5474 55.4531 25.4224C54.6875 27.8911 53.1563 30.0786 51.0469 31.9536C48.9375 33.8286 46.2813 35.3599 43.2812 36.4692C40.2656 37.5942 36.9219 38.2974 33.4375 38.5161C29.9531 38.7349 26.3438 38.4692 22.8281 37.6411V37.6255L18.5938 34.4849V32.7974L51.0469 15.0005L51.9531 15.7036C51.9531 15.7036 52.4219 36.2817 22.8281 35.9067C27.6719 36.4692 32.0625 36.2192 35.9531 35.3755C39.8281 34.5317 43.1875 33.1099 46 31.3286C48.7969 29.5474 51.0156 27.4067 52.625 25.1567C54.2187 22.9067 55.1875 20.5474 55.4844 18.2817ZM52.375 41.7505L52.2344 41.938C50.5937 44.1724 48.3594 46.2661 45.625 48.063C42.8438 49.8911 39.5156 51.4224 35.7031 52.4692C31.9063 53.5005 27.9375 54.0942 23.2188 54.0161H22.8281L18.5938 50.9224V52.4536L22.8281 55.6255C24.2344 55.9536 26.8594 56.3286 30.0312 56.313C31.0469 56.313 32.0781 56.2817 33.1406 56.188C36.3281 55.938 39.5937 55.2661 42.6562 54.0942C43.5 53.7817 44.3437 53.4224 45.1406 53.0161C47.0781 52.063 48.7656 50.938 50.1875 49.688C50.5469 49.3755 50.8906 49.0474 51.2187 48.7036C49.6875 50.4849 47.7969 52.1567 45.5469 53.6567C42.7656 55.5005 39.4531 57.063 35.6719 58.1724C31.9063 59.2817 23.0781 60.0786 22.875 60.0786V60.063L18.5938 56.9849V58.4536L22.8281 61.6099V61.6255C23.875 61.8755 26.5625 62.2505 29.9531 62.2192C30.9531 62.2036 31.9688 62.1567 33.0156 62.0786C36.125 61.813 39.3594 61.1411 42.4219 59.9692C43.25 59.6411 44.0625 59.2974 44.875 58.8911C46.7969 57.9536 48.4531 56.8286 49.8438 55.6099C48.5625 56.9067 47.0781 58.1255 45.4063 59.2505C42.625 61.1099 39.3438 62.688 35.5625 63.8755C31.8125 65.0474 22.9219 66.0942 22.8437 66.0942V67.6255C23.5469 67.7974 26.2656 68.2192 29.8906 68.1411C30.8594 68.1255 31.875 68.0786 32.9219 67.9692C35.9219 67.688 39.125 67.0317 42.2188 65.8442C43.0469 65.5317 43.8594 65.1724 44.6406 64.7817C45.875 64.1724 47 63.4849 48.0156 62.7505C47.1719 63.4692 46.2656 64.1567 45.2812 64.8286C42.5 66.7192 39.2344 68.3286 35.4844 69.5786C31.7813 70.813 23.2969 72.1255 22.8437 72.1255V73.6099C23.1875 73.688 25.9844 74.1411 29.8281 74.0317C30.7812 74.0005 31.7813 73.938 32.8281 73.8442C35.7344 73.5474 38.9062 72.9224 42.0156 71.7036C42.8125 71.3911 43.625 71.0474 44.4063 70.6567C45.0313 70.3442 45.625 70.0161 46.1719 69.6724C45.8281 69.9224 45.4844 70.1724 45.1406 70.4067C42.375 72.2974 39.1094 73.9536 35.3906 75.2661C31.6719 76.5942 27.4688 77.5942 22.8281 78.1567L18.5938 75.0786V76.438L22.8281 79.6099V79.6255C22.8281 79.6255 25.6562 80.0942 29.75 79.9536C33.8437 79.813 39.1719 79.0317 44.1719 76.5474C49.1563 74.0474 51.9844 70.5161 53.5625 67.5942C55.1406 64.6724 55.4688 62.3755 55.4688 62.3755V39.2036C55.4844 38.2974 55.4844 33.688 55.4844 33.1567C55.0313 35.4692 54 39.5317 52.375 41.7505ZM22.8281 73.6255L18.5938 70.4536V69.0317L22.8281 72.1411V73.6255ZM22.8281 67.6099L18.5938 64.4536V63.0161L22.8281 66.1099V67.6099ZM38.8125 18.7505L30.1719 12.2661L16.7188 19.6099V29.563C16.7188 30.1255 17.5313 30.188 17.625 29.6411C18.1719 26.5942 18.875 24.7817 19.8438 24.8755C21.1406 25.0005 22.8281 27.7661 25.0156 26.2036L38.8125 18.7505ZM15.4844 14.8442C12.7031 16.4224 4.25 21.0474 4.25 21.0474V21.0317C15.7969 -0.0151634 33.4687 0.562967 33.4687 0.562967L32.7344 0.0160873C32.7344 0.0160873 8.9375 -1.21828 0.0156298 17.938L0.0625 17.9849L0 17.938V19.4224L4.23438 22.5942C4.23438 22.5942 11.9687 19.2974 14.9531 20.7036C11.9219 23.0942 4.23438 27.1567 4.23438 27.1567V27.1724L0 24.063V25.5317L4.23438 28.688V28.7036C4.23438 28.688 12.3438 25.063 15.0469 26.2036C12.2031 29.2036 4.23438 33.2661 4.23438 33.2661L0 30.188V31.6411L4.23438 34.813C4.23438 34.813 12.6875 30.8442 15.1094 31.7192C12.4687 35.3286 4.23438 39.4067 4.23438 39.4067V39.3911L0 36.2974V37.7349L4.23438 40.9067C4.23438 40.9067 13.0156 36.6255 15.1719 37.2192C12.7344 41.4536 4.23438 45.5161 4.23438 45.5161L0 42.4067V43.8286L4.23438 46.9849V47.0005C4.23438 47.0005 13.3125 42.4067 15.2188 42.688C12.9688 47.563 4.23438 51.6255 4.23438 51.6255V51.6411L0 48.5317V49.938L4.23438 53.0942V53.1099C4.23438 53.0942 13.5469 48.2349 15.25 48.188C13.1875 53.7036 4.23438 57.7349 4.23438 57.7349V57.7505L0 54.6411V56.0474L4.23438 59.2192C4.23438 59.2192 13.7656 54.0942 15.2813 53.688C13.4063 59.8599 4.23438 63.8599 4.23438 63.8599V63.8911L0 60.7817V62.1411L4.23438 65.313V65.2974L15.4688 59.0942V18.6724L30.25 10.4849L36.8906 15.5942V3.23484L15.4844 14.8442Z" fill="#9C9C9C"/>
<path d="M55.4688 27.9219V27.6094C55.4688 26.25 55.453 23.9999 55.453 23.5938C55.1093 25.8593 54.1249 28.4531 52.5155 30.7188C52.4687 30.7813 52.4374 30.8281 52.3905 30.8906C50.7811 33.0938 48.5781 35.1718 45.8437 36.9374C43.0625 38.7343 39.7031 40.1875 35.8437 41.1094C32.0312 42 23.2344 42.0313 22.8125 41.9688V41.9531L18.5938 38.8281V40.4844L22.8281 43.6406V43.6563C24.9219 44.1406 27.4687 44.4687 30.1562 44.4999C31.2188 44.5155 32.2812 44.4844 33.3437 44.4063C36.7344 44.1719 40.0624 43.4688 43.078 42.3438C43.953 42.0157 44.7969 41.6562 45.6094 41.2656C47.5781 40.3124 49.3124 39.1718 50.7655 37.8749C51.4999 37.2187 52.1719 36.5312 52.75 35.8124C52.6563 35.9687 52.5624 36.1093 52.453 36.2499C52.4218 36.3124 52.3749 36.3749 52.328 36.4374C50.6874 38.6562 48.5 40.7344 45.75 42.5313C42.9687 44.3438 39.625 45.8281 35.7969 46.8124C31.9688 47.7812 22.9844 48.0313 22.8281 48.0156V47.9999L18.5938 44.8906V46.4531L22.8281 49.6249V49.6406C24.5781 50.0625 27.1718 50.4063 30.0938 50.4219C31.125 50.4375 32.1719 50.4062 33.2344 50.3124C36.5312 50.0624 39.8281 49.3906 42.8594 48.2344C43.7187 47.9063 44.5469 47.5469 45.3594 47.1563C47.3125 46.2031 49.0311 45.0625 50.453 43.7969C52.5624 41.9219 54.0781 39.7656 54.9062 37.4844C55.3594 36.3281 55.453 34.5313 55.453 33.4063C55.4686 32.2813 55.4688 28.3124 55.4688 27.8438C55.4843 27.8593 55.4843 27.8906 55.4688 27.9219Z" fill="#2081C4"/>
</svg>
